<svg version="1.1" xmlns="http://www.w3.org/2000/svg" xmlns:xlink="http://www.w3.org/1999/xlink" width="98.65664" height="30.51443" viewBox="0,0,98.65664,30.51443"><g transform="translate(-190.67168,-164.74278)"><g stroke-miterlimit="10"><path d="M289.07832,168.24938v23.50187c0,1.79549 -2.71362,3.25596 -6.05345,3.25596h-86.0509c-3.33634,0 -6.05229,-1.46048 -6.05229,-3.25596v-23.50251c0,-1.79549 2.71595,-3.25596 6.05229,-3.25596h86.0509c3.33984,0 6.05345,1.4611 6.05345,3.25659z" fill="#e8e6e6" stroke="#000000" stroke-width="0.5" stroke-linecap="butt"/><path d="M197.59265,188.46853h-4.79093v-16.2857h4.94333" fill="none" stroke="#000000" stroke-width="1" stroke-linecap="butt"/><path d="M212.09707,172.18283h3.96994v16.2857h-4.26469" fill="none" stroke="#000000" stroke-width="1" stroke-linecap="butt"/><text transform="translate(217.81469,185.91515) scale(0.40429,0.41864)" font-size="40" xml:space="preserve" fill="#000000" stroke="none" stroke-width="1" stroke-linecap="butt" font-family="Sans Serif" font-weight="normal" text-anchor="start"><tspan x="0" dy="0">输入代码</tspan></text><path d="M205.64391,174.06886l-2.72391,11.7945" fill="none" stroke="#000000" stroke-width="1" stroke-linecap="round"/><path d="M200.84681,175.09558l-4.11625,5.87991l3.89444,4.27292" fill="none" stroke="#000000" stroke-width="1" stroke-linecap="round"/><path d="M207.56596,175.34584l4.11626,5.87991l-3.89445,4.27292" fill="none" stroke="#000000" stroke-width="1" stroke-linecap="round"/></g></g></svg>