<svg version="1.1" xmlns="http://www.w3.org/2000/svg" xmlns:xlink="http://www.w3.org/1999/xlink" width="32.31168" height="31.13452" viewBox="0,0,32.31168,31.13452"><g transform="translate(-224.15666,-164.82209)"><g stroke="#000000" stroke-miterlimit="10"><path d="M256.21834,192.19447c0,1.93954 -1.63579,3.51215 -3.65229,3.51215h-24.50752c-2.01693,0 -3.65187,-1.57302 -3.65187,-3.51215v-23.33577c0,-1.93954 1.63494,-3.51174 3.65187,-3.51174h24.5071c2.01778,0 3.65229,1.5722 3.65229,3.51174v23.33577z" fill-opacity="0.01176" fill="#ffffff" stroke-width="0.5" stroke-linecap="butt" stroke-linejoin="miter"/><path d="M230.11048,194.79994c-1.98566,0 -3.59543,-1.59127 -3.59543,-3.55599v-14.29219c0,-1.07979 0.49726,-2.10274 1.34849,-2.77661l9.88957,-7.82321c1.3035,-1.03979 3.19037,-1.03979 4.49387,0l9.88787,7.82321c0.85292,0.67386 1.35018,1.69682 1.35018,2.77661v14.29219c0,1.96473 -1.60977,3.55599 -3.59544,3.55599z" fill="none" stroke-width="1.5" stroke-linecap="round" stroke-linejoin="round"/><path d="M232.65725,194.28485v-8.38046c0,-1.68305 2.69903,-3.04744 6.0284,-3.04744h3.01421c3.32939,0 6.02839,1.36438 6.02839,3.04744v8.38046" fill="none" stroke-width="1.5" stroke-linecap="round" stroke-linejoin="round"/></g></g></svg>