<svg version="1.1" xmlns="http://www.w3.org/2000/svg" xmlns:xlink="http://www.w3.org/1999/xlink" width="31.81168" height="30.35966" viewBox="0,0,31.81168,30.35966"><g transform="translate(-224.40666,-165.34697)"><g stroke-miterlimit="10"><path d="M256.21834,192.19448c0,1.93954 -1.63579,3.51215 -3.65229,3.51215h-24.50752c-2.01693,0 -3.65187,-1.57302 -3.65187,-3.51215v-23.33577c0,-1.93954 1.63494,-3.51174 3.65187,-3.51174h24.5071c2.01778,0 3.65229,1.5722 3.65229,3.51174v23.33577z" fill-opacity="0.01176" fill="#ffffff" stroke="none" stroke-width="0" stroke-linecap="butt"/><path d="M249.74787,187.14154c-3.0142,4.61262 -8.60778,6.82545 -13.96185,5.52333c-6.97404,-1.69661 -11.25573,-8.73129 -9.55912,-15.70533c1.69661,-6.97404 8.73128,-11.25573 15.70533,-9.55912c3.45404,0.83572 6.41348,3.05291 8.18609,6.13295l0.99628,1.95457" fill="none" stroke="#000000" stroke-width="2.5" stroke-linecap="square"/><path d="M255.25265,173.23104l-2.51153,6.11179c-0.03661,0.08909 -0.13851,0.13163 -0.2276,0.09502l-6.11179,-2.51153c-0.0653,-0.02677 -0.10804,-0.09028 -0.10825,-0.16085c-0.0002,-0.07058 0.04216,-0.13433 0.1073,-0.16148l8.62331,-3.60026c0.06512,-0.02723 0.14023,-0.01254 0.19028,0.03724c0.05005,0.04978 0.06515,0.1248 0.03827,0.19006" fill="#000000" stroke="#000000" stroke-width="0" stroke-linecap="butt"/></g></g></svg>