<svg version="1.1" xmlns="http://www.w3.org/2000/svg" xmlns:xlink="http://www.w3.org/1999/xlink" width="31.8803" height="30.84637" viewBox="0,0,31.8803,30.84637"><g transform="translate(-224.05986,-165.07857)"><g stroke-miterlimit="10"><path d="M224.31728,195.67144l-0.25741,-30.59287h31.62289l0.25741,30.59287z" fill-opacity="0.01176" fill="#ffffff" stroke="none" stroke-width="0" stroke-linecap="butt" stroke-linejoin="miter"/><path d="M232.65725,194.28485v-8.38045c0,-1.68305 2.69902,-3.04744 6.02839,-3.04744h3.01421c3.32939,0 6.02839,1.36439 6.02839,3.04744v8.38045" fill="none" stroke="#ffffff" stroke-width="1.5" stroke-linecap="round" stroke-linejoin="round"/><path d="M230.1105,195.17494c-1.98566,0 -3.59543,-1.59127 -3.59543,-3.55599v-14.29219c0,-1.07979 0.49726,-2.10274 1.34849,-2.77661l9.88957,-7.82321c1.3035,-1.03979 3.19037,-1.03979 4.49387,0l9.88787,7.82321c0.85292,0.67386 1.35018,1.69682 1.35018,2.77661v14.29219c0,1.96473 -1.60977,3.55599 -3.59544,3.55599z" fill="none" stroke="#ffffff" stroke-width="1.5" stroke-linecap="round" stroke-linejoin="round"/></g></g></svg>