<svg version="1.1" xmlns="http://www.w3.org/2000/svg" xmlns:xlink="http://www.w3.org/1999/xlink" width="98.65664" height="30.51443" viewBox="0,0,98.65664,30.51443"><g transform="translate(-190.67168,-164.74278)"><g stroke-miterlimit="10"><path d="M289.07832,168.24938v23.50187c0,1.79549 -2.71362,3.25596 -6.05345,3.25596h-86.0509c-3.33634,0 -6.05229,-1.46048 -6.05229,-3.25596v-23.50251c0,-1.79549 2.71595,-3.25596 6.05229,-3.25596h86.0509c3.33984,0 6.05345,1.4611 6.05345,3.25659z" fill="#e8e6e6" stroke="#000000" stroke-width="0.5" stroke-linecap="butt" stroke-linejoin="miter"/><text transform="translate(219.28569,185.12823) scale(0.40429,0.41864)" font-size="40" xml:space="preserve" fill="#000000" stroke="none" stroke-width="1" stroke-linecap="butt" stroke-linejoin="miter" font-family="Sans Serif" font-weight="normal" text-anchor="start"><tspan x="0" dy="0">清空内容</tspan></text><path d="M198.47892,193.45306c-1.63206,0 -2.9551,-1.32304 -2.9551,-2.9551v-23.6408h13.29794l7.38775,7.38774v16.25305c0,1.63206 -1.32305,2.9551 -2.9551,2.9551zM202.91157,184.58776h5.91019" fill="none" stroke="#000000" stroke-width="1" stroke-linecap="round" stroke-linejoin="round"/><path d="M205.96349,178.08347l0.06349,6.4127l-1.96825,4.69842" fill="none" stroke="#000000" stroke-width="1" stroke-linecap="round" stroke-linejoin="miter"/><path d="M204.05872,184.75014l-2.09524,3.80951" fill="none" stroke="#000000" stroke-width="1" stroke-linecap="round" stroke-linejoin="miter"/><path d="M208.63015,184.36918l0.12698,0.69842l-1.96824,3.74603" fill="none" stroke="#000000" stroke-width="1" stroke-linecap="round" stroke-linejoin="miter"/></g></g></svg>